<?xml version="1.0" encoding="utf-8"?>
<!-- Generator: Adobe Illustrator 23.0.1, SVG Export Plug-In . SVG Version: 6.00 Build 0)  -->
<svg version="1.1" id="Слой_1" xmlns="http://www.w3.org/2000/svg" xmlns:xlink="http://www.w3.org/1999/xlink" x="0px" y="0px"
	 viewBox="0 0 44.89 42.21" style="enable-background:new 0 0 44.89 42.21;" xml:space="preserve">
<style type="text/css">
	.st0{fill:none;stroke:#666666;stroke-width:0.75;stroke-linecap:round;stroke-linejoin:round;stroke-miterlimit:10;}
	.st1{fill:#666666;}
</style>
<g>
	<g>
		<path class="st0" d="M31.38,23.48L31.38,23.48C31.38,23.48,31.38,23.48,31.38,23.48l-0.48,0V4.15c0-0.41-0.17-0.78-0.43-1.05
			c-0.27-0.27-0.64-0.43-1.05-0.43h-0.04h-2.19h-0.04H15.51h-0.04c-0.82,0-1.48,0.66-1.48,1.48v19.33h-0.48
			c-1.23,0-2.23,1-2.23,2.23c0,1.23,1,2.23,2.23,2.23h0.18v10.5c0,0.61,0.5,1.11,1.11,1.11c0.61,0,1.11-0.5,1.11-1.11v-4.04h13.06
			v4.04c0,0.61,0.5,1.11,1.11,1.11c0.61,0,1.11-0.5,1.11-1.11v-10.5h0.18h0.01c1.23,0,2.23-1,2.23-2.23
			C33.61,24.48,32.61,23.48,31.38,23.48z M15.92,32.16v-4.23h13.06v4.23H15.92z"/>
		<path class="st1" d="M26.34,7.32c-0.3,0-0.54,0.24-0.54,0.54v10.71c0,0.3,0.24,0.54,0.54,0.54c0.3,0,0.54-0.24,0.54-0.54V7.86
			C26.88,7.57,26.64,7.32,26.34,7.32L26.34,7.32z M26.34,7.32"/>
		<path class="st1" d="M18.56,7.32c-0.3,0-0.54,0.24-0.54,0.54v10.71c0,0.3,0.24,0.54,0.54,0.54c0.3,0,0.54-0.24,0.54-0.54V7.86
			C19.1,7.57,18.86,7.32,18.56,7.32L18.56,7.32z M18.56,7.32"/>
		<path class="st1" d="M22.45,7.32c-0.3,0-0.54,0.24-0.54,0.54v10.71c0,0.3,0.24,0.54,0.54,0.54c0.3,0,0.54-0.24,0.54-0.54V7.86
			C22.99,7.57,22.75,7.32,22.45,7.32L22.45,7.32z M22.45,7.32"/>
	</g>
	<line class="st0" x1="13.99" y1="23.48" x2="30.9" y2="23.48"/>
	<line class="st0" x1="13.69" y1="27.93" x2="31.2" y2="27.93"/>
</g>
</svg>
