<?xml version="1.0" encoding="utf-8"?>
<!-- Generator: Adobe Illustrator 23.0.1, SVG Export Plug-In . SVG Version: 6.00 Build 0)  -->
<svg version="1.1" id="Слой_1" xmlns="http://www.w3.org/2000/svg" xmlns:xlink="http://www.w3.org/1999/xlink" x="0px" y="0px"
	 viewBox="0 0 44.89 42.21" style="enable-background:new 0 0 44.89 42.21;" xml:space="preserve">
<style type="text/css">
	.st0{fill:none;stroke:#666666;stroke-width:0.75;stroke-linecap:round;stroke-linejoin:round;stroke-miterlimit:10;}
</style>
<g>
	<path class="st0" d="M29.19,5.86"/>
	<path class="st0" d="M16.72,2.52c0.01-0.03,0.04-0.04,0.07-0.04h11.31c0.03,0,0.06,0.02,0.07,0.04"/>
	<line class="st0" x1="25.29" y1="5.86" x2="19.62" y2="5.86"/>
	<path class="st0" d="M15.71,7.33l0-0.15v32.24c0,0.17,0.14,0.31,0.31,0.31h0h1.1h11.76c0.17,0,0.31-0.14,0.31-0.31V7.33"/>
	<path class="st0" d="M13.59,4.58L11.66,5.8c-0.06,0.04-0.11,0.1-0.13,0.17L5.58,24.58c-0.06,0.18,0.05,0.37,0.24,0.4l1.07,0.21l0,0
		l6.41,1.24c0.16,0.03,0.32-0.07,0.36-0.23l2.04-8.31V7.05"/>
	<path class="st0" d="M29.19,17.89l1.04,8.27c0.01,0.04,0.02,0.09,0.04,0.12c0.02,0.03,0.05,0.06,0.07,0.08c0,0,0.01,0.01,0.01,0.01
		c0.07,0.05,0.15,0.07,0.24,0.06l1.89-0.32l6.59-1.13c0.19-0.03,0.3-0.22,0.25-0.4l-5.95-18.6C33.34,5.9,33.3,5.84,33.24,5.8
		l-1.93-1.22"/>
	<path class="st0" d="M29.12,32.46c-1.11,0-1.11,1.9-2.22,1.9c-1.11,0-1.11-1.9-2.22-1.9c-1.11,0-1.11,1.9-2.22,1.9
		c-1.11,0-1.11-1.9-2.22-1.9c-1.11,0-1.11,1.9-2.22,1.9c-0.41,0-0.67-0.26-0.89-0.59c-0.02-0.03-0.04-0.07-0.06-0.1
		c-0.02-0.04-0.05-0.07-0.07-0.11c-0.01-0.02-0.02-0.04-0.04-0.06c-0.04-0.06-0.07-0.13-0.11-0.19c0,0,0,0,0,0
		c-0.02-0.04-0.05-0.08-0.07-0.11c-0.04-0.06-0.07-0.12-0.11-0.17c-0.02-0.03-0.04-0.06-0.07-0.1c0,0,0,0,0,0
		c-0.01-0.01-0.01-0.02-0.02-0.03c0,0,0,0,0,0c-0.05-0.06-0.09-0.11-0.14-0.17c0,0,0,0,0,0c-0.01-0.01-0.03-0.02-0.04-0.04
		c0,0,0,0,0,0c-0.02-0.02-0.05-0.04-0.08-0.06c-0.03-0.03-0.07-0.05-0.1-0.07c0,0,0,0,0,0c-0.04-0.02-0.09-0.04-0.14-0.06
		c0,0,0,0,0,0c-0.02-0.01-0.04-0.02-0.06-0.02h0c-0.07-0.02-0.14-0.03-0.22-0.03c0,0,0,0,0,0c0,0,0,0,0,0c-0.01,0-0.02,0-0.02,0
		c-0.02,0-0.03,0-0.05,0v6.96c0,0.17,0.14,0.31,0.31,0.31h0h1.1h11.76c0.17,0,0.31-0.14,0.31-0.31v-6.96
		C29.17,32.46,29.14,32.46,29.12,32.46z"/>
	<path class="st0" d="M22.45,9.29l-5.66-6.76c-0.03-0.03-0.07-0.04-0.1-0.02L14.77,3.8l-1.18,0.79L20,12.22"/>
	<line class="st0" x1="27.15" y1="14.91" x2="24.9" y2="12.22"/>
	<path class="st0" d="M22.65,14.91l8.66-10.32l-1.99-1.32l0,0l-1.11-0.74c-0.02-0.01-0.04-0.02-0.05-0.01
		c-0.02,0-0.04,0.01-0.05,0.03L17.75,14.91"/>
	<rect x="15.71" y="14.96" class="st0" width="13.48" height="8.58"/>
	<rect x="15.71" y="17.71" class="st0" width="13.48" height="2.76"/>
	<path class="st0" d="M20,12.22"/>
</g>
</svg>
