<?xml version="1.0" encoding="utf-8"?>
<!-- Generator: Adobe Illustrator 23.0.1, SVG Export Plug-In . SVG Version: 6.00 Build 0)  -->
<svg version="1.1" id="Слой_1" xmlns="http://www.w3.org/2000/svg" xmlns:xlink="http://www.w3.org/1999/xlink" x="0px" y="0px"
	 viewBox="0 0 44.89 42.21" style="enable-background:new 0 0 44.89 42.21;" xml:space="preserve">
<style type="text/css">
	.st0{fill:none;stroke:#666666;stroke-width:0.75;stroke-linecap:round;stroke-linejoin:round;stroke-miterlimit:10;}
</style>
<g>
	<path class="st0" d="M21.22,21.04v9.89c-2.78,0.42-4.88,2.17-4.88,3.34c0,1.18,2.1,2.16,4.89,2.38c0,0,0,0,0,0c0,0,0.01,0,0.01,0
		c0.39,0.03,0.79,0.05,1.21,0.05c3.37,0,6.11-1.09,6.11-2.43c0-1.18-2.1-2.93-4.9-3.34v-9.88"/>
	<g>
		<path class="st0" d="M22.45,16.5c-0.38,0-0.76,0-1.14-0.01c-0.03,0-0.06,0-0.08,0c0.01,0,0.02,0,0.02,0
			c-10.57-0.17-18.96-2.56-19.04-5.49c0,0.01,0,0.03,0,0.04v2.44c0,2.95,8.42,5.36,19.05,5.53c-0.01,0-0.02,0-0.02,0
			c0.03,0,0.06,0,0.08,0c0.38,0.01,0.76,0.01,1.14,0.01c11.18,0,20.24-2.48,20.24-5.54v-2.44c0-0.01,0-0.03,0-0.04
			C42.6,14.05,33.57,16.5,22.45,16.5z"/>
		<path class="st0" d="M22.45,5.51c-0.38,0-0.76,0-1.14,0.01c-0.03,0-0.06,0-0.08,0c0.01,0,0.02,0,0.02,0
			C10.68,5.69,2.29,8.08,2.21,11.01c0.08,2.93,8.47,5.32,19.04,5.49c-0.01,0-0.02,0-0.02,0c0.03,0,0.06,0,0.08,0
			c0.38,0.01,0.76,0.01,1.14,0.01c11.13,0,20.16-2.46,20.24-5.5C42.6,7.97,33.58,5.51,22.45,5.51z"/>
	</g>
</g>
</svg>
