<?xml version="1.0" encoding="utf-8"?>
<!-- Generator: Adobe Illustrator 23.0.1, SVG Export Plug-In . SVG Version: 6.00 Build 0)  -->
<svg version="1.1" id="Слой_1" xmlns="http://www.w3.org/2000/svg" xmlns:xlink="http://www.w3.org/1999/xlink" x="0px" y="0px"
	 viewBox="0 0 44.89 42.21" style="enable-background:new 0 0 44.89 42.21;" xml:space="preserve">
<style type="text/css">
	.st0{fill:none;stroke:#666666;stroke-width:0.75;stroke-linecap:round;stroke-linejoin:round;stroke-miterlimit:10;}
	.st1{fill:none;stroke:#666666;stroke-width:0.5;stroke-linecap:round;stroke-linejoin:round;stroke-miterlimit:10;}
</style>
<g>
	<path class="st0" d="M36.33,19.82c-0.66-0.67-1.1-1.53-1.24-2.46C33.86,9.12,28.67,2.93,22.45,2.93c-0.37,0-0.73,0.02-1.09,0.07
		c0,0,0.01,0,0.01,0C15.63,3.66,10.96,9.6,9.8,17.36c-0.14,0.93-0.58,1.79-1.24,2.46c-0.33,0.33-0.53,0.79-0.53,1.29
		c0,0.5,0.2,0.96,0.53,1.29c0.66,0.67,1.1,1.53,1.24,2.46c1.16,7.76,5.83,13.7,11.56,14.37c0,0-0.01,0-0.01,0
		c0.36,0.04,0.73,0.06,1.09,0.06c1.94,0,3.79-0.6,5.44-1.69c3.64-2.38,6.36-7.08,7.2-12.74c0.14-0.93,0.58-1.79,1.24-2.46
		c0.33-0.33,0.53-0.79,0.53-1.29C36.86,20.6,36.66,20.15,36.33,19.82z"/>
	<path class="st0" d="M22.45,37.09"/>
	<path class="st0" d="M22.45,34.9c-2,0-3.97-1.24-5.57-3.48c-1.92-2.7-2.97-6.36-2.97-10.31s1.06-7.61,2.97-10.31
		c1.6-2.25,3.57-3.48,5.57-3.48c2,0,3.97,1.24,5.57,3.48c1.92,2.7,2.97,6.36,2.97,10.31s-1.06,7.61-2.97,10.31
		C26.42,33.66,24.44,34.9,22.45,34.9L22.45,34.9z M22.45,34.9"/>
	<path class="st1" d="M29.36,32.38"/>
</g>
</svg>
