<?xml version="1.0" encoding="utf-8"?>
<!-- Generator: Adobe Illustrator 23.0.1, SVG Export Plug-In . SVG Version: 6.00 Build 0)  -->
<svg version="1.1" id="Слой_1" xmlns="http://www.w3.org/2000/svg" xmlns:xlink="http://www.w3.org/1999/xlink" x="0px" y="0px"
	 viewBox="0 0 44.89 42.21" style="enable-background:new 0 0 44.89 42.21;" xml:space="preserve">
<style type="text/css">
	.st0{fill:none;stroke:#666666;stroke-width:0.75;stroke-linecap:round;stroke-linejoin:round;stroke-miterlimit:10;}
</style>
<g>
	<g>
		<g>
			<path class="st0" d="M37.4,8.94c0-1.48-1.2-2.68-2.68-2.68h-2.3H10.17c-1.48,0-2.68,1.2-2.68,2.68"/>
		</g>
		<polyline class="st0" points="7.64,20.85 5.19,20.85 5.19,13.38 7.64,13.38 		"/>
		<polyline class="st0" points="12.53,20.85 10.08,20.85 10.08,13.38 12.53,13.38 		"/>
		<polyline class="st0" points="17.42,20.85 14.97,20.85 14.97,13.38 17.42,13.38 		"/>
		<polyline class="st0" points="22.3,20.85 19.86,20.85 19.86,13.38 22.3,13.38 		"/>
		<polyline class="st0" points="27.19,20.85 24.75,20.85 24.75,13.38 27.19,13.38 		"/>
		<polyline class="st0" points="32.08,20.85 29.64,20.85 29.64,13.38 32.08,13.38 		"/>
		<polyline class="st0" points="36.97,20.85 34.53,20.85 34.53,13.38 36.97,13.38 		"/>
		<line class="st0" x1="39.42" y1="20.85" x2="39.42" y2="13.38"/>
		<path class="st0" d="M41.19,21c-0.01-0.01-0.02-0.02-0.03-0.02c-0.01-0.01-0.02-0.01-0.03-0.02c-0.12-0.07-0.25-0.11-0.4-0.11h0
			h-2.3H4.16c-0.42,0-0.77,0.34-0.77,0.77v7.68c0,0.42,0.34,0.77,0.77,0.77h34.28h2.3h0c0.21,0,0.4-0.08,0.53-0.22
			c0,0,0,0,0.01-0.01c0.01-0.01,0.03-0.03,0.04-0.05c0.11-0.13,0.19-0.31,0.19-0.5v0v-7.68v0C41.5,21.37,41.38,21.14,41.19,21z"/>
		<path class="st0" d="M38.64,25.48H6.25 M38.64,26.01"/>
		<path class="st0" d="M41.33,11.64c-0.01-0.01-0.01-0.03-0.02-0.04c-0.01-0.01-0.02-0.02-0.03-0.04c-0.21-0.29-0.54-0.47-0.92-0.47
			h0h-2.3H4.54c-0.64,0-1.15,0.52-1.15,1.15v0c0,0.64,0.52,1.15,1.15,1.15h35.81c0.64,0,1.15-0.52,1.15-1.15v0
			C41.5,12.02,41.44,11.82,41.33,11.64z"/>
	</g>
	<path class="st0" d="M5.61,30.61v5.12c0,0.13,0.1,0.23,0.23,0.23h1.3c0.13,0,0.23-0.1,0.23-0.23v-2.11h0.29
		c1.23,0,2.22-0.99,2.22-2.22"/>
	<path class="st0" d="M39.42,30.61v5.12c0,0.13-0.1,0.23-0.23,0.23h-1.3c-0.13,0-0.23-0.1-0.23-0.23v-2.11h-0.29
		c-1.23,0-2.22-0.99-2.22-2.22"/>
</g>
</svg>
