<?xml version="1.0" encoding="utf-8"?>
<!-- Generator: Adobe Illustrator 23.0.1, SVG Export Plug-In . SVG Version: 6.00 Build 0)  -->
<svg version="1.1" id="Слой_1" xmlns="http://www.w3.org/2000/svg" xmlns:xlink="http://www.w3.org/1999/xlink" x="0px" y="0px"
	 viewBox="0 0 23.66 38.13" style="enable-background:new 0 0 23.66 38.13;" xml:space="preserve">
<style type="text/css">
	.st0{fill:none;stroke:#666666;stroke-width:0.75;stroke-linecap:round;stroke-linejoin:round;stroke-miterlimit:10;}
</style>
<g>
	<path class="st0" d="M10.44,11.61c-0.57,0-1.03,0.46-1.03,1.03v0.75H5.02c-0.57,0-1.03,0.46-1.03,1.03s0.46,1.03,1.03,1.03h4.39
		v0.75c0,0.57,0.46,1.03,1.03,1.03c0.57,0,1.03-0.46,1.03-1.03v-0.75v-2.05v-0.75C11.46,12.07,11,11.61,10.44,11.61z"/>
	<path class="st0" d="M21.29,2.98c-0.03-0.03-0.05-0.06-0.07-0.09c-0.03-0.03-0.07-0.06-0.1-0.09c-0.55-0.51-1.27-0.83-2.08-0.83
		h-0.03h-2.03H4.65c-1.72,0-3.12,1.4-3.12,3.12v0.06c0,1.72,1.4,3.12,3.12,3.12h12.33h2.03h0.03c0.8,0,1.53-0.32,2.08-0.83
		c0.03-0.03,0.07-0.06,0.11-0.09c0.03-0.03,0.05-0.06,0.07-0.09c0.52-0.56,0.84-1.29,0.84-2.11V5.1
		C22.13,4.28,21.81,3.54,21.29,2.98z"/>
	<path class="st0" d="M7.89,17.22C8.28,18.26,9.29,19,10.46,19h0.21V34.1H4.48c-0.67,0-1.21,0.54-1.21,1.21v0.6
		c0,0.13,0.11,0.24,0.24,0.24H18.1h2.05h0c0.03,0,0.06-0.02,0.08-0.03c0.09-0.04,0.16-0.11,0.16-0.21v0v-0.6v0
		c0-0.32-0.12-0.6-0.32-0.82c-0.01-0.01-0.02-0.03-0.03-0.04c-0.01-0.01-0.02-0.02-0.03-0.03c-0.22-0.2-0.5-0.33-0.82-0.33h0h-2.05
		h-4.13V19h0.21c1.51,0,2.74-1.23,2.74-2.74v-5.92h2.88h2.05c0.57,0,1.03-0.46,1.03-1.03c0-0.43-0.26-0.79-0.63-0.95
		c-0.12-0.05-0.26-0.08-0.4-0.08h-2.05H2.79c-0.57,0-1.03,0.46-1.03,1.03c0,0.57,0.46,1.03,1.03,1.03h4.93v1.51"/>
</g>
</svg>
