<?xml version="1.0" encoding="utf-8"?>
<!-- Generator: Adobe Illustrator 23.0.1, SVG Export Plug-In . SVG Version: 6.00 Build 0)  -->
<svg version="1.1" id="Слой_1" xmlns="http://www.w3.org/2000/svg" xmlns:xlink="http://www.w3.org/1999/xlink" x="0px" y="0px"
	 viewBox="0 0 36.6 42.21" style="enable-background:new 0 0 36.6 42.21;" xml:space="preserve">
<style type="text/css">
	.st0{fill:none;stroke:#666666;stroke-width:0.75;stroke-linecap:round;stroke-linejoin:round;stroke-miterlimit:10;}
	.st1{fill:#666666;}
</style>
<g>
	<path class="st0" d="M34.54,2.51h-1.95H2.06c-0.16,0-0.29,0.13-0.29,0.29v36.62c0,0.16,0.13,0.29,0.29,0.29h30.52h1.95
		c0.16,0,0.29-0.13,0.29-0.29V2.8C34.83,2.64,34.7,2.51,34.54,2.51z"/>
	<path class="st0" d="M2.2,4.75L2.2,4.75h14.69c0.16,0,0.29,0.13,0.29,0.29v24.12c0,0.16-0.13,0.29-0.29,0.29H2.2 M2.2,4.75"/>
	<path class="st0" d="M34.41,5.04 M34.41,29.45h-14.7c-0.16,0-0.29-0.13-0.29-0.29V5.04c0-0.16,0.13-0.29,0.29-0.29h14.7"/>
	<path class="st1" d="M11.62,20.62v-6.58c0.34-0.19,0.58-0.55,0.58-0.98c0-0.62-0.5-1.12-1.12-1.12c-0.62,0-1.12,0.5-1.12,1.12
		c0,0.42,0.23,0.78,0.58,0.98v6.58c-0.34,0.19-0.58,0.55-0.58,0.98c0,0.62,0.5,1.12,1.12,1.12c0.62,0,1.12-0.5,1.12-1.12
		C12.2,21.18,11.96,20.82,11.62,20.62z"/>
	<path class="st1" d="M26.07,20.62v-6.58c0.34-0.19,0.58-0.55,0.58-0.98c0-0.62-0.5-1.12-1.12-1.12c-0.62,0-1.12,0.5-1.12,1.12
		c0,0.42,0.23,0.78,0.58,0.98v6.58c-0.34,0.19-0.58,0.55-0.58,0.98c0,0.62,0.5,1.12,1.12,1.12c0.62,0,1.12-0.5,1.12-1.12
		C26.64,21.18,26.41,20.82,26.07,20.62z"/>
	<path class="st0" d="M14.24,26.66"/>
	<path class="st0" d="M29.66,26.66"/>
	<path class="st0" d="M34.41,31.45L34.41,31.45H20.02c-0.3,0-0.54,0.24-0.54,0.54v5.24c0,0.3,0.24,0.54,0.54,0.54h14.39
		 M34.41,36.69"/>
	<path class="st0" d="M2.2,31.45 M2.2,37.78h14.18c0.3,0,0.54-0.24,0.54-0.54V32c0-0.3-0.24-0.54-0.54-0.54H1.77 M16.48,36.69"/>
	<path class="st1" d="M10.14,35.16h0.75c0.3,0,0.54-0.24,0.54-0.54c0-0.3-0.24-0.54-0.54-0.54h-0.75c-0.3,0-0.54,0.24-0.54,0.54
		C9.59,34.92,9.84,35.16,10.14,35.16L10.14,35.16z M10.14,35.16"/>
	<path class="st1" d="M25.63,35.16h0.75c0.3,0,0.54-0.24,0.54-0.54c0-0.3-0.24-0.54-0.54-0.54h-0.75c-0.3,0-0.54,0.24-0.54,0.54
		C25.09,34.92,25.33,35.16,25.63,35.16L25.63,35.16z M25.63,35.16"/>
</g>
</svg>
