<?xml version="1.0" encoding="utf-8"?>
<!-- Generator: Adobe Illustrator 23.0.1, SVG Export Plug-In . SVG Version: 6.00 Build 0)  -->
<svg version="1.1" id="Слой_1" xmlns="http://www.w3.org/2000/svg" xmlns:xlink="http://www.w3.org/1999/xlink" x="0px" y="0px"
	 viewBox="0 0 44.89 42.21" style="enable-background:new 0 0 44.89 42.21;" xml:space="preserve">
<style type="text/css">
	.st0{fill:none;stroke:#666666;stroke-width:0.75;stroke-linecap:round;stroke-linejoin:round;stroke-miterlimit:10;}
</style>
<g>
	<line class="st0" x1="3.94" y1="23.91" x2="3.94" y2="9.7"/>
	<line class="st0" x1="9.27" y1="23.91" x2="9.27" y2="9.7"/>
	<line class="st0" x1="14.6" y1="23.91" x2="14.6" y2="9.7"/>
	<line class="st0" x1="19.93" y1="23.91" x2="19.93" y2="9.7"/>
	<line class="st0" x1="25.27" y1="23.91" x2="25.27" y2="9.7"/>
	<line class="st0" x1="30.6" y1="23.91" x2="30.6" y2="9.7"/>
	<line class="st0" x1="35.93" y1="23.91" x2="35.93" y2="9.7"/>
	<line class="st0" x1="41.26" y1="23.91" x2="41.26" y2="9.7"/>
	<path class="st0" d="M4,27.48v7.15c0,0.17,0.14,0.32,0.32,0.32h1.81c0.17,0,0.32-0.14,0.32-0.32V31.7h0.4c1.71,0,3.1-1.39,3.1-3.1"
		/>
	<path class="st0" d="M41.32,27.48v7.15c0,0.17-0.14,0.32-0.32,0.32h-1.81c-0.17,0-0.32-0.14-0.32-0.32V31.7h-0.4
		c-1.71,0-3.1-1.39-3.1-3.1"/>
	<path class="st0" d="M42.56,23.91h-1.88H2.34c-0.17,0-0.32,0.14-0.32,0.32v1.81c0,0.17,0.14,0.32,0.32,0.32h38.33h1.88
		c0.17,0,0.32-0.14,0.32-0.32v-1.81C42.87,24.05,42.73,23.91,42.56,23.91z"/>
	<path class="st0" d="M42.56,7.26h-1.88H2.34c-0.17,0-0.32,0.14-0.32,0.32v1.81c0,0.17,0.14,0.32,0.32,0.32h38.33h1.88
		c0.17,0,0.32-0.14,0.32-0.32V7.57C42.87,7.4,42.73,7.26,42.56,7.26z"/>
</g>
</svg>
