<?xml version="1.0" encoding="utf-8"?>
<!-- Generator: Adobe Illustrator 23.0.1, SVG Export Plug-In . SVG Version: 6.00 Build 0)  -->
<svg version="1.1" id="Слой_1" xmlns="http://www.w3.org/2000/svg" xmlns:xlink="http://www.w3.org/1999/xlink" x="0px" y="0px"
	 viewBox="0 0 36.6 42.21" style="enable-background:new 0 0 36.6 42.21;" xml:space="preserve">
<style type="text/css">
	.st0{fill:none;stroke:#666666;stroke-width:0.75;stroke-linecap:round;stroke-linejoin:round;stroke-miterlimit:10;}
	.st1{fill:#666666;}
</style>
<g>
	<g>
		<path class="st0" d="M8.41,33.78v4.89c0,0.6,0.48,1.08,1.08,1.08c0.6,0,1.08-0.48,1.08-1.08v-0.72h0.35
			c1.51,0,2.74-1.23,2.74-2.74v-1.43"/>
		<path class="st0" d="M22.93,33.78v1.43c0,1.51,1.23,2.74,2.74,2.74h0.35v0.72c0,0.6,0.48,1.08,1.08,1.08
			c0.6,0,1.08-0.48,1.08-1.08v-4.89"/>
	</g>
	<path class="st0" d="M6.72,30.37"/>
	<path class="st0" d="M31.75,2.47h-1.88H4.85c-0.15,0-0.28,0.12-0.28,0.28v29.78c0,0.15,0.12,0.28,0.28,0.28h25.03h1.88h0
		c0.15,0,0.28-0.12,0.28-0.28V2.75C32.03,2.59,31.9,2.47,31.75,2.47z"/>
	<path class="st0" d="M27.72,20.35H8.88c-0.29,0-0.52,0.23-0.52,0.52v7.62c0,0.29,0.23,0.52,0.52,0.52h18.83
		c0.29,0,0.52-0.23,0.52-0.52v-7.62C28.24,20.58,28,20.35,27.72,20.35z"/>
	<path class="st0" d="M27.72,6.26H8.88c-0.29,0-0.52,0.23-0.52,0.52v7.62c0,0.29,0.23,0.52,0.52,0.52h18.83
		c0.29,0,0.52-0.23,0.52-0.52V6.78C28.24,6.49,28,6.26,27.72,6.26L27.72,6.26z"/>
	<path class="st1" d="M21.53,9.53c-0.07-0.01-0.14-0.02-0.22-0.02h-2.16h-3.88c-0.6,0-1.08,0.48-1.08,1.08
		c0,0.6,0.48,1.08,1.08,1.08h3.88h2.16c0.6,0,1.08-0.48,1.08-1.08C22.4,10.07,22.03,9.64,21.53,9.53z"/>
	<path class="st1" d="M21.32,23.42h-2.16h-3.88c-0.6,0-1.08,0.48-1.08,1.08c0,0.6,0.48,1.08,1.08,1.08h3.88h2.16
		c0.6,0,1.08-0.48,1.08-1.08C22.4,23.91,21.91,23.42,21.32,23.42z"/>
</g>
</svg>
