<?xml version="1.0" encoding="utf-8"?>
<!-- Generator: Adobe Illustrator 23.0.1, SVG Export Plug-In . SVG Version: 6.00 Build 0)  -->
<svg version="1.1" id="Слой_1" xmlns="http://www.w3.org/2000/svg" xmlns:xlink="http://www.w3.org/1999/xlink" x="0px" y="0px"
	 viewBox="0 0 44.89 42.21" style="enable-background:new 0 0 44.89 42.21;" xml:space="preserve">
<style type="text/css">
	.st0{fill:#FFFFFF;stroke:#666666;stroke-width:0.75;stroke-linecap:round;stroke-linejoin:round;stroke-miterlimit:10;}
</style>
<g>
	<path class="st0" d="M32.1,8.56c0-0.29-0.23-0.52-0.52-0.52l0,0c-0.29,0-0.52,0.23-0.52,0.52v3.67c0,0.89-0.73,1.62-1.62,1.62
		h-6.99c-0.29,0-0.52,0.23-0.52,0.52 M31.58,8.05"/>
	<path class="st0" d="M22.97,21.11c0-0.29-0.23-0.52-0.52-0.52l0,0h-6.99c-0.89,0-1.62-0.73-1.62-1.62v-2.21
		c0-0.29-0.23-0.52-0.52-0.52c-0.29,0-0.52,0.23-0.52,0.52 M22.45,20.59"/>
	<path class="st0" d="M32.05,8.56c0,0.57-0.46,1.04-1.04,1.04c-0.57,0-1.04-0.46-1.04-1.04c0-0.57,0.46-1.04,1.04-1.04
		C31.59,7.53,32.05,7.99,32.05,8.56L32.05,8.56z M32.05,8.56"/>
	<path class="st0" d="M14.92,16.76c0,0.57-0.46,1.04-1.04,1.04c-0.57,0-1.04-0.46-1.04-1.04c0-0.57,0.46-1.04,1.04-1.04
		C14.45,15.72,14.92,16.19,14.92,16.76L14.92,16.76z M14.92,16.76"/>
	<path class="st0" d="M27.35,37.15c-0.01-0.02-0.03-0.04-0.04-0.05c-0.01-0.01-0.02-0.02-0.03-0.03c-0.26-0.24-0.6-0.39-0.97-0.39h0
		h-2v-1.57v0c0-0.12-0.05-0.23-0.12-0.33c-0.1-0.14-0.26-0.24-0.46-0.24h0h-0.21V5.48h-2.14v29.06h-0.21
		c-0.32,0-0.57,0.26-0.57,0.57v1.57h-2c-0.79,0-1.43,0.64-1.43,1.43v0.43c0,0.16,0.13,0.29,0.29,0.29h7.85h2.14h0
		c0.11,0,0.2-0.07,0.25-0.16c0-0.01,0.01-0.01,0.01-0.02c0.01-0.03,0.02-0.07,0.02-0.11V38.1v0C27.73,37.73,27.58,37.4,27.35,37.15z
		"/>
	<path class="st0" d="M22.45,3.4c-0.18,0-0.35,0.03-0.51,0.07c-0.05,0.01-0.09,0.03-0.14,0.04c-0.12,0.04-0.23,0.08-0.34,0.14
		c-0.03,0.01-0.06,0.02-0.08,0.03c0,0,0.01,0,0.01,0.01c-0.64,0.37-1.08,1.06-1.08,1.85s0.44,1.48,1.08,1.85c0,0-0.01,0-0.01,0.01
		c0.03,0.01,0.06,0.02,0.08,0.03c0.11,0.06,0.22,0.1,0.34,0.14c0.05,0.02,0.09,0.03,0.14,0.04c0.16,0.04,0.33,0.07,0.51,0.07
		c1.18,0,2.14-0.96,2.14-2.14S23.63,3.4,22.45,3.4z"/>
</g>
</svg>
