<?xml version="1.0" encoding="utf-8"?>
<!-- Generator: Adobe Illustrator 23.0.1, SVG Export Plug-In . SVG Version: 6.00 Build 0)  -->
<svg version="1.1" id="Слой_1" xmlns="http://www.w3.org/2000/svg" xmlns:xlink="http://www.w3.org/1999/xlink" x="0px" y="0px"
	 viewBox="0 0 44.89 42.21" style="enable-background:new 0 0 44.89 42.21;" xml:space="preserve">
<style type="text/css">
	.st0{fill:none;stroke:#666666;stroke-width:0.75;stroke-linecap:round;stroke-linejoin:round;stroke-miterlimit:10;}
</style>
<g>
	<line class="st0" x1="7.95" y1="24.17" x2="7.95" y2="8.63"/>
	<line class="st0" x1="13.7" y1="24.17" x2="13.7" y2="8.63"/>
	<line class="st0" x1="19.45" y1="24.17" x2="19.45" y2="8.63"/>
	<line class="st0" x1="25.2" y1="24.17" x2="25.2" y2="8.63"/>
	<line class="st0" x1="30.96" y1="24.17" x2="30.96" y2="8.63"/>
	<line class="st0" x1="36.71" y1="24.17" x2="36.71" y2="8.63"/>
	<path class="st0" d="M8.01,28.08v7.82c0,0.19,0.15,0.35,0.35,0.35h1.98c0.19,0,0.35-0.15,0.35-0.35v-3.22h0.44
		c1.87,0,3.39-1.52,3.39-3.39"/>
	<path class="st0" d="M37.34,28.08v7.82c0,0.19-0.15,0.35-0.35,0.35h-1.98c-0.19,0-0.35-0.15-0.35-0.35v-3.22h-0.44
		c-1.87,0-3.39-1.52-3.39-3.39"/>
	<path class="st0" d="M38.7,24.17h-2.06H6.2c-0.19,0-0.35,0.15-0.35,0.35v1.98c0,0.19,0.15,0.35,0.35,0.35h30.44h2.06
		c0.19,0,0.35-0.15,0.35-0.35v-1.98C39.04,24.32,38.89,24.17,38.7,24.17z"/>
	<path class="st0" d="M38.7,5.96h-2.06H6.2c-0.19,0-0.35,0.15-0.35,0.35v1.98c0,0.19,0.15,0.35,0.35,0.35h30.44h2.06
		c0.19,0,0.35-0.16,0.35-0.35V6.31C39.04,6.12,38.89,5.96,38.7,5.96z"/>
</g>
</svg>
