<svg version="1.1" id="Слой_1" xmlns="http://www.w3.org/2000/svg" x="0" y="0" viewBox="0 0 44.89 42.21" xml:space="preserve"><style>.st0{fill:none;stroke:#666;stroke-width:.75;stroke-linecap:round;stroke-linejoin:round;stroke-miterlimit:10}</style><path class="st0" d="M37.4 8.94c0-1.48-1.2-2.68-2.68-2.68H10.17a2.68 2.68 0 0 0-2.68 2.68m.15 11.91H5.19v-7.47h2.45m4.89 7.47h-2.45v-7.47h2.45m4.89 7.47h-2.45v-7.47h2.45m4.88 7.47h-2.44v-7.47h2.44m4.89 7.47h-2.44v-7.47h2.44m4.89 7.47h-2.44v-7.47h2.44m4.89 7.47h-2.44v-7.47h2.44m2.45 7.47v-7.47"/><path class="st0" d="M41.19 21c-.01-.01-.02-.02-.03-.02-.01-.01-.02-.01-.03-.02a.774.774 0 0 0-.4-.11H4.16a.77.77 0 0 0-.77.77v7.68c0 .42.34.77.77.77h36.58c.21 0 .4-.08.53-.22l.01-.01c.01-.01.03-.03.04-.05.11-.13.19-.31.19-.5v-7.68a.807.807 0 0 0-.32-.61zm-2.55 4.48H6.25m35.08-13.84c-.01-.01-.01-.03-.02-.04a1.123 1.123 0 0 0-.95-.51H4.54a1.15 1.15 0 0 0 0 2.3h35.81a1.15 1.15 0 0 0 .98-1.75zM5.61 30.61v5.12c0 .13.1.23.23.23h1.3c.13 0 .23-.1.23-.23v-2.11h.29c1.23 0 2.22-.99 2.22-2.22m29.54-.79v5.12c0 .13-.1.23-.23.23h-1.3c-.13 0-.23-.1-.23-.23v-2.11h-.29c-1.23 0-2.22-.99-2.22-2.22"/></svg>