<svg version="1.1" id="Слой_1" xmlns="http://www.w3.org/2000/svg" x="0" y="0" viewBox="0 0 44.89 42.21" xml:space="preserve"><style>.st0{fill:none;stroke:#666;stroke-width:.75;stroke-linecap:round;stroke-linejoin:round;stroke-miterlimit:10}</style><path class="st0" d="M21.22 21.04v9.89c-2.78.42-4.88 2.17-4.88 3.34 0 1.18 2.1 2.16 4.89 2.38h.01c.39.03.79.05 1.21.05 3.37 0 6.11-1.09 6.11-2.43 0-1.18-2.1-2.93-4.9-3.34v-9.88m-1.21-4.55c-.38 0-.76 0-1.14-.01h-.08.02C10.68 16.32 2.29 13.93 2.21 11v2.48c0 2.95 8.42 5.36 19.05 5.53h-.02.08c.38.01.76.01 1.14.01 11.18 0 20.24-2.48 20.24-5.54V11c-.1 3.05-9.13 5.5-20.25 5.5z"/><path class="st0" d="M22.45 5.51c-.38 0-.76 0-1.14.01h-.08.02c-10.57.17-18.96 2.56-19.04 5.49.08 2.93 8.47 5.32 19.04 5.49h-.02.08c.38.01.76.01 1.14.01 11.13 0 20.16-2.46 20.24-5.5-.09-3.04-9.11-5.5-20.24-5.5z"/></svg>