<svg version="1.1" id="Слой_1" xmlns="http://www.w3.org/2000/svg" x="0" y="0" viewBox="0 0 44.89 42.21" xml:space="preserve"><style>.st0{fill:none;stroke:#666;stroke-width:.75;stroke-linecap:round;stroke-linejoin:round;stroke-miterlimit:10}</style><path class="st0" d="M31.38 23.48h-.48V4.15c0-.41-.17-.78-.43-1.05-.27-.27-.64-.43-1.05-.43H15.47c-.82 0-1.48.66-1.48 1.48v19.33h-.48c-1.23 0-2.23 1-2.23 2.23s1 2.23 2.23 2.23h.18v10.5c0 .61.5 1.11 1.11 1.11.61 0 1.11-.5 1.11-1.11V34.4h13.06v4.04c0 .61.5 1.11 1.11 1.11.61 0 1.11-.5 1.11-1.11v-10.5h.19c1.23 0 2.23-1 2.23-2.23s-1-2.23-2.23-2.23zm-15.46 8.68v-4.23h13.06v4.23H15.92z"/><path d="M26.34 7.32c-.3 0-.54.24-.54.54v10.71c0 .3.24.54.54.54.3 0 .54-.24.54-.54V7.86c0-.29-.24-.54-.54-.54zm-7.78 0c-.3 0-.54.24-.54.54v10.71c0 .3.24.54.54.54.3 0 .54-.24.54-.54V7.86c0-.29-.24-.54-.54-.54zm3.89 0c-.3 0-.54.24-.54.54v10.71c0 .3.24.54.54.54.3 0 .54-.24.54-.54V7.86c0-.29-.24-.54-.54-.54zm0 0" fill="#666"/><path class="st0" d="M13.99 23.48H30.9m-17.21 4.45H31.2"/></svg>