<svg version="1.1" id="Слой_1" xmlns="http://www.w3.org/2000/svg" x="0" y="0" viewBox="0 0 23.66 38.13" xml:space="preserve"><style>.st0{fill:none;stroke:#666;stroke-width:.75;stroke-linecap:round;stroke-linejoin:round;stroke-miterlimit:10}</style><path class="st0" d="M10.44 11.61c-.57 0-1.03.46-1.03 1.03v.75H5.02c-.57 0-1.03.46-1.03 1.03s.46 1.03 1.03 1.03h4.39v.75c0 .57.46 1.03 1.03 1.03.57 0 1.03-.46 1.03-1.03v-3.55c-.01-.58-.47-1.04-1.03-1.04zm10.85-8.63a.55.55 0 0 1-.07-.09c-.03-.03-.07-.06-.1-.09-.55-.51-1.27-.83-2.08-.83H4.65c-1.72 0-3.12 1.4-3.12 3.12v.06c0 1.72 1.4 3.12 3.12 3.12h14.39c.8 0 1.53-.32 2.08-.83.03-.03.07-.06.11-.09a.55.55 0 0 0 .07-.09c.52-.56.84-1.29.84-2.11V5.1c-.01-.82-.33-1.56-.85-2.12z"/><path class="st0" d="M7.89 17.22c.39 1.04 1.4 1.78 2.57 1.78h.21v15.1H4.48c-.67 0-1.21.54-1.21 1.21v.6c0 .13.11.24.24.24h16.64c.03 0 .06-.02.08-.03.09-.04.16-.11.16-.21v-.6c0-.32-.12-.6-.32-.82-.01-.01-.02-.03-.03-.04l-.03-.03c-.22-.2-.5-.33-.82-.33h-6.18V19h.21c1.51 0 2.74-1.23 2.74-2.74v-5.92h4.93c.57 0 1.03-.46 1.03-1.03a1.032 1.032 0 0 0-1.03-1.03H2.79c-.57 0-1.03.46-1.03 1.03 0 .57.46 1.03 1.03 1.03h4.93v1.51"/></svg>