<svg version="1.1" id="Слой_1" xmlns="http://www.w3.org/2000/svg" x="0" y="0" viewBox="0 0 44.89 42.21" xml:space="preserve"><style>.st0{fill:none;stroke:#666;stroke-width:.75;stroke-linecap:round;stroke-linejoin:round;stroke-miterlimit:10}</style><path class="st0" d="M16.72 2.52c.01-.03.04-.04.07-.04H28.1c.03 0 .06.02.07.04m-2.88 3.34h-5.67m-3.91 1.47v-.15 32.24c0 .17.14.31.31.31h12.86c.17 0 .31-.14.31-.31V7.33m-15.6-2.75L11.66 5.8c-.06.04-.11.1-.13.17L5.58 24.58c-.06.18.05.37.24.4l1.07.21 6.41 1.24c.16.03.32-.07.36-.23l2.04-8.31V7.05m13.49 10.84l1.04 8.27c.01.04.02.09.04.12s.05.06.07.08l.01.01c.07.05.15.07.24.06l1.89-.32 6.59-1.13c.19-.03.3-.22.25-.4l-5.95-18.6a.352.352 0 0 0-.13-.18l-1.93-1.22"/><path class="st0" d="M29.12 32.46c-1.11 0-1.11 1.9-2.22 1.9s-1.11-1.9-2.22-1.9-1.11 1.9-2.22 1.9-1.11-1.9-2.22-1.9-1.11 1.9-2.22 1.9c-.41 0-.67-.26-.89-.59-.02-.03-.04-.07-.06-.1-.02-.04-.05-.07-.07-.11a.21.21 0 0 0-.04-.06c-.04-.06-.07-.13-.11-.19-.02-.04-.05-.08-.07-.11-.04-.06-.07-.12-.11-.17-.02-.03-.04-.06-.07-.1-.01-.01-.01-.02-.02-.03l-.14-.17c-.01-.01-.03-.02-.04-.04-.02-.02-.05-.04-.08-.06-.03-.03-.07-.05-.1-.07-.04-.02-.09-.04-.14-.06-.02-.01-.04-.02-.06-.02a.78.78 0 0 0-.22-.03h-.07v6.96c0 .17.14.31.31.31H28.9c.17 0 .31-.14.31-.31v-6.96c-.04.01-.07.01-.09.01zM22.45 9.29l-5.66-6.76c-.03-.03-.07-.04-.1-.02L14.77 3.8l-1.18.79L20 12.22m7.15 2.69l-2.25-2.69m-2.25 2.69l8.66-10.32-1.99-1.32-1.11-.74c-.02-.01-.04-.02-.05-.01-.02 0-.04.01-.05.03L17.75 14.91m-2.04.05h13.48v8.58H15.71z"/><path class="st0" d="M15.71 17.71h13.48v2.76H15.71z"/></svg>