<svg version="1.1" id="Слой_1" xmlns="http://www.w3.org/2000/svg" x="0" y="0" viewBox="0 0 36.6 42.21" xml:space="preserve"><style>.st0{fill:none;stroke:#666;stroke-width:.75;stroke-linecap:round;stroke-linejoin:round;stroke-miterlimit:10}.st1{fill:#666}</style><path class="st0" d="M34.54 2.51H2.06a.29.29 0 0 0-.29.29v36.62c0 .16.13.29.29.29h32.47c.16 0 .29-.13.29-.29V2.8a.276.276 0 0 0-.28-.29z"/><path class="st0" d="M2.2 4.75h14.69c.16 0 .29.13.29.29v24.12c0 .16-.13.29-.29.29H2.2m32.21 0h-14.7a.29.29 0 0 1-.29-.29V5.04c0-.16.13-.29.29-.29h14.7"/><path class="st1" d="M11.62 20.62v-6.58a1.12 1.12 0 1 0-1.08 0v6.58a1.12 1.12 0 1 0 1.66.98c0-.42-.24-.78-.58-.98zm14.45 0v-6.58a1.12 1.12 0 1 0-1.08 0v6.58a1.12 1.12 0 1 0 1.66.98c-.01-.42-.24-.78-.58-.98z"/><path class="st0" d="M34.41 31.45H20.02c-.3 0-.54.24-.54.54v5.24c0 .3.24.54.54.54h14.39m-32.21.01h14.18c.3 0 .54-.24.54-.54V32c0-.3-.24-.54-.54-.54H1.77m14.71 5.23"/><path class="st1" d="M10.14 35.16h.75c.3 0 .54-.24.54-.54 0-.3-.24-.54-.54-.54h-.75c-.3 0-.54.24-.54.54-.01.3.24.54.54.54zm15.49 0h.75c.3 0 .54-.24.54-.54 0-.3-.24-.54-.54-.54h-.75c-.3 0-.54.24-.54.54 0 .3.24.54.54.54zm0 0"/></svg>