<svg version="1.1" id="Слой_1" xmlns="http://www.w3.org/2000/svg" x="0" y="0" viewBox="0 0 44.89 42.21" xml:space="preserve"><style>.st0{fill:none;stroke:#666;stroke-width:.75;stroke-linecap:round;stroke-linejoin:round;stroke-miterlimit:10}</style><path class="st0" d="M36.33 19.82a4.46 4.46 0 0 1-1.24-2.46C33.86 9.12 28.67 2.93 22.45 2.93c-.37 0-.73.02-1.09.07h.01c-5.74.66-10.41 6.6-11.57 14.36a4.46 4.46 0 0 1-1.24 2.46c-.33.33-.53.79-.53 1.29s.2.96.53 1.29c.66.67 1.1 1.53 1.24 2.46 1.16 7.76 5.83 13.7 11.56 14.37h-.01c.36.04.73.06 1.09.06 1.94 0 3.79-.6 5.44-1.69 3.64-2.38 6.36-7.08 7.2-12.74.14-.93.58-1.79 1.24-2.46.33-.33.53-.79.53-1.29.01-.51-.19-.96-.52-1.29z"/><path class="st0" d="M22.45 34.9c-2 0-3.97-1.24-5.57-3.48-1.92-2.7-2.97-6.36-2.97-10.31s1.06-7.61 2.97-10.31c1.6-2.25 3.57-3.48 5.57-3.48 2 0 3.97 1.24 5.57 3.48 1.92 2.7 2.97 6.36 2.97 10.31s-1.06 7.61-2.97 10.31c-1.6 2.24-3.58 3.48-5.57 3.48zm0 0"/></svg>