<svg version="1.1" id="Слой_1" xmlns="http://www.w3.org/2000/svg" x="0" y="0" viewBox="0 0 44.89 42.21" xml:space="preserve"><style>.st0{fill:#fff;stroke:#666;stroke-width:.75;stroke-linecap:round;stroke-linejoin:round;stroke-miterlimit:10}</style><path class="st0" d="M32.1 8.56c0-.29-.23-.52-.52-.52-.29 0-.52.23-.52.52v3.67c0 .89-.73 1.62-1.62 1.62h-6.99c-.29 0-.52.23-.52.52m1.04 6.74c0-.29-.23-.52-.52-.52h-6.99c-.89 0-1.62-.73-1.62-1.62v-2.21c0-.29-.23-.52-.52-.52-.29 0-.52.23-.52.52m9.65 3.83"/><path class="st0" d="M32.05 8.56a1.04 1.04 0 1 1-2.078.002 1.04 1.04 0 0 1 2.078-.002zm-17.13 8.2a1.04 1.04 0 1 1-2.078.002 1.04 1.04 0 0 1 2.078-.002zm12.43 20.39c-.01-.02-.03-.04-.04-.05l-.03-.03c-.26-.24-.6-.39-.97-.39h-2v-1.57a.58.58 0 0 0-.12-.33.558.558 0 0 0-.46-.24h-.21V5.48h-2.14v29.06h-.21a.57.57 0 0 0-.57.57v1.57h-2c-.79 0-1.43.64-1.43 1.43v.43c0 .16.13.29.29.29h9.99c.11 0 .2-.07.25-.16 0-.01.01-.01.01-.02a.36.36 0 0 0 .02-.11v-.44c0-.37-.15-.7-.38-.95z"/><path class="st0" d="M22.45 3.4c-.18 0-.35.03-.51.07-.05.01-.09.03-.14.04-.12.04-.23.08-.34.14-.03.01-.06.02-.08.03 0 0 .01 0 .01.01-.64.37-1.08 1.06-1.08 1.85s.44 1.48 1.08 1.85c0 0-.01 0-.01.01.03.01.06.02.08.03.11.06.22.1.34.14.05.02.09.03.14.04.16.04.33.07.51.07 1.18 0 2.14-.96 2.14-2.14s-.96-2.14-2.14-2.14z"/></svg>