<svg viewBox="0 0 14.68 14.74" xmlns="http://www.w3.org/2000/svg"><path d="M13.45 10.89c0 .15-.03.36-.09.6-.06.25-.12.44-.18.59-.12.29-.47.59-1.05.91-.54.29-1.07.44-1.59.44-.15 0-.31-.01-.45-.03s-.31-.06-.49-.11-.31-.09-.4-.12-.25-.09-.48-.18-.37-.14-.42-.15c-.56-.2-1.06-.44-1.5-.71-.73-.45-1.48-1.07-2.26-1.85-.8-.8-1.41-1.55-1.86-2.28-.28-.44-.52-.94-.72-1.5-.01-.05-.06-.19-.15-.42s-.15-.38-.18-.47-.07-.23-.12-.41-.09-.34-.11-.49-.03-.3-.03-.45c0-.53.15-1.06.44-1.6.32-.58.62-.93.91-1.05.14-.06.34-.12.59-.18s.45-.09.6-.09c.08 0 .14.01.18.03.1.03.25.25.45.65.07.12.15.27.26.47l.3.54c.09.17.18.32.27.46.02.02.07.09.15.21.08.13.14.23.18.31s.06.16.06.24c0 .11-.08.26-.24.43-.16.18-.34.33-.53.48-.19.14-.37.29-.54.45-.16.16-.24.29-.24.4 0 .05.01.12.04.19.03.08.05.14.07.18s.06.11.12.21.09.15.1.16c.44.78.94 1.45 1.5 2.01s1.23 1.06 2.01 1.49c.01.01.07.04.16.1.1.06.17.1.21.12s.1.04.18.07.14.04.19.04c.1 0 .23-.08.39-.24s.32-.34.46-.53.3-.37.47-.53.31-.24.43-.24c.08 0 .16.02.24.06s.18.1.3.18.19.13.21.15c.14.09.3.17.46.27l.54.3c.2.11.36.19.46.26.4.2.62.35.65.45.04.04.05.1.05.18z" fill="none" stroke="#666" stroke-linecap="round" stroke-linejoin="round" stroke-miterlimit="22.926"/></svg>