<svg xmlns="http://www.w3.org/2000/svg" viewBox="0 0 44.89 42.21"><path d="M3.94 23.91V9.7m5.33 14.21V9.7m5.33 14.21V9.7m5.33 14.21V9.7m5.34 14.21V9.7m5.33 14.21V9.7m5.33 14.21V9.7m5.33 14.21V9.7M4 27.48v7.15c0 .17.14.32.32.32h1.81c.17 0 .32-.14.32-.32V31.7h.4c1.71 0 3.1-1.39 3.1-3.1m31.37-1.12v7.15c0 .17-.14.32-.32.32h-1.81c-.17 0-.32-.14-.32-.32V31.7h-.4c-1.71 0-3.1-1.39-3.1-3.1m7.19-4.69H2.34c-.17 0-.32.14-.32.32v1.81c0 .17.14.32.32.32h40.21c.17 0 .32-.14.32-.32v-1.81c0-.18-.14-.32-.31-.32zm0-16.65H2.34c-.17 0-.32.14-.32.32v1.81c0 .17.14.32.32.32h40.21c.17 0 .32-.14.32-.32V7.57c0-.17-.14-.31-.31-.31z" fill="none" stroke="#666" stroke-width=".75" stroke-linecap="round" stroke-linejoin="round" stroke-miterlimit="10"/></svg>