<svg xmlns="http://www.w3.org/2000/svg" viewBox="0 0 44.89 42.21"><path d="M7.95 24.17V8.63m5.75 15.54V8.63m5.75 15.54V8.63m5.75 15.54V8.63m5.76 15.54V8.63m5.75 15.54V8.63M8.01 28.08v7.82c0 .19.15.35.35.35h1.98c.19 0 .35-.15.35-.35v-3.22h.44c1.87 0 3.39-1.52 3.39-3.39m22.82-1.21v7.82c0 .19-.15.35-.35.35h-1.98c-.19 0-.35-.15-.35-.35v-3.22h-.44c-1.87 0-3.39-1.52-3.39-3.39m7.87-5.12H6.2c-.19 0-.35.15-.35.35v1.98c0 .19.15.35.35.35h32.5c.19 0 .35-.15.35-.35v-1.98c-.01-.2-.16-.35-.35-.35zm0-18.21H6.2c-.19 0-.35.15-.35.35v1.98c0 .19.15.35.35.35h32.5c.19 0 .35-.16.35-.35V6.31c-.01-.19-.16-.35-.35-.35z" fill="none" stroke="#666" stroke-width=".75" stroke-linecap="round" stroke-linejoin="round" stroke-miterlimit="10"/></svg>