<svg version="1.1" id="Слой_1" xmlns="http://www.w3.org/2000/svg" x="0" y="0" viewBox="0 0 36.6 42.21" xml:space="preserve"><style>.st0{fill:none;stroke:#666;stroke-width:.75;stroke-linecap:round;stroke-linejoin:round;stroke-miterlimit:10}</style><path class="st0" d="M8.41 33.78v4.89c0 .6.48 1.08 1.08 1.08.6 0 1.08-.48 1.08-1.08v-.72h.35c1.51 0 2.74-1.23 2.74-2.74v-1.43m9.27 0v1.43c0 1.51 1.23 2.74 2.74 2.74h.35v.72c0 .6.48 1.08 1.08 1.08.6 0 1.08-.48 1.08-1.08v-4.89m3.57-31.31H4.85a.28.28 0 0 0-.28.28v29.78c0 .15.12.28.28.28h26.91c.15 0 .28-.12.28-.28V2.75a.295.295 0 0 0-.29-.28z"/><path class="st0" d="M27.72 20.35H8.88c-.29 0-.52.23-.52.52v7.62c0 .29.23.52.52.52h18.83c.29 0 .52-.23.52-.52v-7.62a.508.508 0 0 0-.51-.52zm0-14.09H8.88c-.29 0-.52.23-.52.52v7.62c0 .29.23.52.52.52h18.83c.29 0 .52-.23.52-.52V6.78a.508.508 0 0 0-.51-.52z"/><path d="M21.53 9.53c-.07-.01-.14-.02-.22-.02h-6.04c-.6 0-1.08.48-1.08 1.08 0 .6.48 1.08 1.08 1.08h6.04c.6 0 1.08-.48 1.08-1.08.01-.52-.36-.95-.86-1.06zm-.21 13.89h-6.04c-.6 0-1.08.48-1.08 1.08 0 .6.48 1.08 1.08 1.08h6.04c.6 0 1.08-.48 1.08-1.08 0-.59-.49-1.08-1.08-1.08z" fill="#666"/></svg>